<svg xmlns="http://www.w3.org/2000/svg" width="1280" height="420" viewBox="0 0 1280 420" role="img" aria-label="Jesus Ricardo Rosales — Software Developer">
<defs>
<linearGradient id="sky" x1="0" y1="0" x2="0" y2="1">
  <stop offset="0%" stop-color="#160029"/>
  <stop offset="55%" stop-color="#3b0a52"/>
  <stop offset="100%" stop-color="#7a1a5e"/>
</linearGradient>
<linearGradient id="sun" x1="0" y1="0" x2="0" y2="1">
  <stop offset="0%" stop-color="#ffe259"/>
  <stop offset="45%" stop-color="#ff8a3d"/>
  <stop offset="100%" stop-color="#ff2e9a"/>
</linearGradient>
<linearGradient id="floor" x1="0" y1="0" x2="0" y2="1">
  <stop offset="0%" stop-color="#1b0033"/>
  <stop offset="100%" stop-color="#070010"/>
</linearGradient>
<linearGradient id="gridfade" x1="0" y1="0" x2="0" y2="1">
  <stop offset="0%" stop-color="#ffffff" stop-opacity="0.15"/>
  <stop offset="35%" stop-color="#ffffff" stop-opacity="0.75"/>
  <stop offset="100%" stop-color="#ffffff" stop-opacity="1"/>
</linearGradient>
<mask id="gridmask"><rect x="0" y="250" width="1280" height="170" fill="url(#gridfade)"/></mask>
<filter id="glow" x="-60%" y="-60%" width="220%" height="220%">
  <feGaussianBlur stdDeviation="7" result="b"/>
  <feMerge><feMergeNode in="b"/><feMergeNode in="b"/><feMergeNode in="SourceGraphic"/></feMerge>
</filter>
<filter id="softglow" x="-60%" y="-60%" width="220%" height="220%">
  <feGaussianBlur stdDeviation="16"/>
</filter>
<clipPath id="sunbands">
<rect x="540.0" y="158.0" width="200" height="11.0"/>
<rect x="540.0" y="171.0" width="200" height="9.4"/>
<rect x="540.0" y="184.0" width="200" height="7.8"/>
<rect x="540.0" y="197.0" width="200" height="6.2"/>
<rect x="540.0" y="210.0" width="200" height="4.6"/>
<rect x="540.0" y="223.0" width="200" height="3.0"/>
<rect x="540.0" y="236.0" width="200" height="1.5"/>
<rect x="540.0" y="249.0" width="200" height="1.5"/>
</clipPath>
</defs>
<rect width="1280" height="420" fill="url(#sky)"/>
<circle cx="97" cy="38" r="1.4" fill="#fff" opacity="0.75"/>
<circle cx="210" cy="72" r="1.0" fill="#fff" opacity="0.75"/>
<circle cx="318" cy="30" r="1.7" fill="#fff" opacity="0.75"/>
<circle cx="405" cy="96" r="1.1" fill="#fff" opacity="0.75"/>
<circle cx="150" cy="130" r="1.0" fill="#fff" opacity="0.75"/>
<circle cx="60" cy="175" r="1.3" fill="#fff" opacity="0.75"/>
<circle cx="930" cy="44" r="1.5" fill="#fff" opacity="0.75"/>
<circle cx="1035" cy="88" r="1.1" fill="#fff" opacity="0.75"/>
<circle cx="1140" cy="34" r="1.6" fill="#fff" opacity="0.75"/>
<circle cx="1215" cy="120" r="1.2" fill="#fff" opacity="0.75"/>
<circle cx="860" cy="150" r="1.0" fill="#fff" opacity="0.75"/>
<circle cx="1190" cy="190" r="1.3" fill="#fff" opacity="0.75"/>
<circle cx="740" cy="40" r="1.1" fill="#fff" opacity="0.75"/>
<circle cx="520" cy="58" r="1.2" fill="#fff" opacity="0.75"/>
<circle cx="275" cy="190" r="1.0" fill="#fff" opacity="0.75"/>
<circle cx="640.0" cy="245" r="95" fill="#ff2e9a" opacity="0.35" filter="url(#softglow)"/>
<g clip-path="url(#sunbands)"><circle cx="640.0" cy="245" r="92" fill="url(#sun)"/></g>
<rect x="0" y="250" width="1280" height="170" fill="url(#floor)"/>
<rect x="0" y="248.5" width="1280" height="3" fill="#ff5fc8" filter="url(#glow)"/>
<g mask="url(#gridmask)" stroke="#00e5ff" stroke-opacity="0.55" fill="none">
<line x1="640.0" y1="250" x2="-1152.0" y2="420" stroke-width="1.4"/>
<line x1="640.0" y1="250" x2="-1024.0" y2="420" stroke-width="1.4"/>
<line x1="640.0" y1="250" x2="-896.0" y2="420" stroke-width="1.4"/>
<line x1="640.0" y1="250" x2="-768.0" y2="420" stroke-width="1.4"/>
<line x1="640.0" y1="250" x2="-640.0" y2="420" stroke-width="1.4"/>
<line x1="640.0" y1="250" x2="-512.0" y2="420" stroke-width="1.4"/>
<line x1="640.0" y1="250" x2="-384.0" y2="420" stroke-width="1.4"/>
<line x1="640.0" y1="250" x2="-256.0" y2="420" stroke-width="1.4"/>
<line x1="640.0" y1="250" x2="-128.0" y2="420" stroke-width="1.4"/>
<line x1="640.0" y1="250" x2="0.0" y2="420" stroke-width="1.4"/>
<line x1="640.0" y1="250" x2="128.0" y2="420" stroke-width="1.4"/>
<line x1="640.0" y1="250" x2="256.0" y2="420" stroke-width="1.4"/>
<line x1="640.0" y1="250" x2="384.0" y2="420" stroke-width="1.4"/>
<line x1="640.0" y1="250" x2="512.0" y2="420" stroke-width="1.4"/>
<line x1="640.0" y1="250" x2="640.0" y2="420" stroke-width="1.4"/>
<line x1="640.0" y1="250" x2="768.0" y2="420" stroke-width="1.4"/>
<line x1="640.0" y1="250" x2="896.0" y2="420" stroke-width="1.4"/>
<line x1="640.0" y1="250" x2="1024.0" y2="420" stroke-width="1.4"/>
<line x1="640.0" y1="250" x2="1152.0" y2="420" stroke-width="1.4"/>
<line x1="640.0" y1="250" x2="1280.0" y2="420" stroke-width="1.4"/>
<line x1="640.0" y1="250" x2="1408.0" y2="420" stroke-width="1.4"/>
<line x1="640.0" y1="250" x2="1536.0" y2="420" stroke-width="1.4"/>
<line x1="640.0" y1="250" x2="1664.0" y2="420" stroke-width="1.4"/>
<line x1="640.0" y1="250" x2="1792.0" y2="420" stroke-width="1.4"/>
<line x1="640.0" y1="250" x2="1920.0" y2="420" stroke-width="1.4"/>
<line x1="640.0" y1="250" x2="2048.0" y2="420" stroke-width="1.4"/>
<line x1="640.0" y1="250" x2="2176.0" y2="420" stroke-width="1.4"/>
<line x1="640.0" y1="250" x2="2304.0" y2="420" stroke-width="1.4"/>
<line x1="640.0" y1="250" x2="2432.0" y2="420" stroke-width="1.4"/>
<line x1="0" y1="253.2" x2="1280" y2="253.2" stroke-width="1.4"/>
<line x1="0" y1="257.5" x2="1280" y2="257.5" stroke-width="1.4"/>
<line x1="0" y1="263.2" x2="1280" y2="263.2" stroke-width="1.4"/>
<line x1="0" y1="270.9" x2="1280" y2="270.9" stroke-width="1.4"/>
<line x1="0" y1="281.3" x2="1280" y2="281.3" stroke-width="1.4"/>
<line x1="0" y1="295.1" x2="1280" y2="295.1" stroke-width="1.4"/>
<line x1="0" y1="313.6" x2="1280" y2="313.6" stroke-width="1.4"/>
<line x1="0" y1="338.4" x2="1280" y2="338.4" stroke-width="1.4"/>
<line x1="0" y1="371.7" x2="1280" y2="371.7" stroke-width="1.4"/>
<line x1="0" y1="416.3" x2="1280" y2="416.3" stroke-width="1.4"/>
</g>
<text x="640.0" y="112" text-anchor="middle" font-family="'Helvetica Neue',Helvetica,Arial,sans-serif" font-size="58" font-weight="bold" textLength="960" lengthAdjust="spacingAndGlyphs" fill="#ff2e9a" opacity="0.85" filter="url(#glow)">JESUS RICARDO ROSALES</text>
<text x="640.0" y="112" text-anchor="middle" font-family="'Helvetica Neue',Helvetica,Arial,sans-serif" font-size="58" font-weight="bold" textLength="960" lengthAdjust="spacingAndGlyphs" fill="#ffffff">JESUS RICARDO ROSALES</text>
<text x="640.0" y="152" text-anchor="middle" font-family="'Helvetica Neue',Helvetica,Arial,sans-serif" font-size="20" textLength="470" lengthAdjust="spacingAndGlyphs" fill="#00e5ff" filter="url(#glow)">SOFTWARE DEVELOPER</text>
<text x="640.0" y="384" text-anchor="middle" font-family="'Helvetica Neue',Helvetica,Arial,sans-serif" font-size="16" textLength="620" lengthAdjust="spacingAndGlyphs" fill="#c9a7ff" opacity="0.9">C · PYTHON · SQL · LINUX · 42 PORTO</text>
</svg>